<svg xmlns="http://www.w3.org/2000/svg" viewBox="0 0 100 100">
  <rect x="3" y="3" width="94" height="94" transform="rotate(45 50 50)" fill="#fff" stroke="#dc2626" stroke-width="4"/>
  <g fill="#000">
    <!-- Environment - dead tree and fish -->
    <!-- Tree -->
    <path d="M30 75 L30 50 C30 50 25 45 25 40 C25 32 30 28 35 28 C35 23 40 20 45 22 C48 18 55 20 55 28 L55 30 C60 30 62 35 60 40 C58 45 55 45 55 48 L55 75 Z"/>
    <rect x="38" y="48" width="8" height="27"/>
    <!-- Fish -->
    <path d="M55 70 C55 70 65 65 75 68 C80 70 78 75 75 77 C65 80 55 75 55 75 L55 70 Z"/>
    <circle cx="72" cy="72" r="2" fill="#fff"/>
  </g>
</svg>
