<svg xmlns="http://www.w3.org/2000/svg" viewBox="0 0 100 100">
  <rect x="3" y="3" width="94" height="94" transform="rotate(45 50 50)" fill="#fff" stroke="#dc2626" stroke-width="4"/>
  <g fill="#000">
    <!-- Exploding bomb symbol -->
    <circle cx="50" cy="55" r="12"/>
    <path d="M50 43 L52 35 L48 35 Z"/>
    <path d="M62 48 L68 42 L65 39 Z"/>
    <path d="M38 48 L32 42 L35 39 Z"/>
    <path d="M60 62 L70 68 L68 64 Z"/>
    <path d="M40 62 L30 68 L32 64 Z"/>
    <path d="M50 70 L52 80 L48 80 Z"/>
    <circle cx="50" cy="30" r="3"/>
    <circle cx="68" cy="35" r="2"/>
    <circle cx="32" cy="35" r="2"/>
    <circle cx="72" cy="65" r="2"/>
    <circle cx="28" cy="65" r="2"/>
  </g>
</svg>
